<svg version="1.2" xmlns="http://www.w3.org/2000/svg" viewBox="0 0 1472 325" width="1472" height="325">
	<title>새 프로젝트</title>
	<style>
		.s0 { fill: #ffffff } 
	</style>
	<path id="The Heart of Jesus" class="s0" aria-label="The Heart of Jesus"  d="m156.9 38.3q3.1 0 3.1 4.6 0 4.3-8.9 20.5-8.8 16.2-14.8 24.4-3.6 5.5-8.7 5.5-4.7 0-4.7-3.2l0.2-2q3-11.2 3-19 0-11.8-6.4-11.8-2.8 0-5.5 2-2.8 1.8-4.1 3.9l-1.4 2q-3.2 5.3-38.5 65.3-8 13.7-16.5 31.3-8.4 17.3-13.7 27.3-5.2 9.8-10.5 14.2-5.2 4.1-17.1 4.1-11.6 0-11.6-3.9v-0.7q0-2.3 12.1-21.4 44.5-70.1 67.3-114.6 2-4.1 2-5.9 0-3-3.8-3-12.6 0-38.4 28.3-2.5 4.6-11.6 4.6-2.1 0-2.1-2.1 0-1.6 3-6.6l4.6-8.2q20.1-35.1 26.2-35.1 11.9 0 17.8 4.5 16-0.4 29.4-0.4 13.5 0 26.7 0.4 11.4-5 22.9-5zm36 78.3q9.8 0 9.8 11.4 0 11.4-8 28.7-11.6 24.5-26.4 42.2-7.1 8.5-17.8 8.5-3.5 0-3.5-1.8l1-2.5q10.7-15.8 18.9-32.4 8.4-16.9 8.4-24.5 0-1.3-0.9-2.2-0.7-1-2.5-1.2-9.3 0-25.3 15.3-15.8 15.3-27.4 30.8-11.4 15.5-14.8 21.7-3.2 5.9-6.6 7.3-3.5 1.1-11.2 1.1-7.8 0-7.8-2.7 0-0.9 2.1-4.3 2.3-3.5 16.4-30.8 14.4-27.4 30.1-55.7 16-28.5 34.7-58.2 18.9-29.7 37.6-48.4 19-18.9 32.9-18.9 10.7 0 10.7 12.5 0 24.2-22.1 51.8-21.9 27.6-40.2 36.1-4.1 1.8-8.6 1.8-4.4 0-4.4-2l1.4-2.3q22.4-15.5 35.4-35.8 13.2-20.4 13.2-28.6 0-2.7-0.7-3.6-0.7-1.2-3.2-1.2-8.2 0-26.9 26.7-18.5 26.7-33.3 55-14.8 28.3-14.8 34.5 0 2.5 1.6 2.5 1.8 0 4.7-2.3 3.5-3.2 8.7-8 5.5-4.8 18-12.5 12.8-8 20.8-8zm32.9 97.4q-13.3 0-19.4-7.8-6.2-7.9-6.2-19.3 0-11.7 5-24.2 5-12.8 13.7-24.7 8.9-11.8 23.1-19.8 14.3-8.2 30.8-8.2 7.5 0 11.4 4.8 3.8 4.5 3.8 10.9 0 13.2-9.3 24.6-9.4 11.5-20.8 17.4-11.4 5.9-20.3 6.8-8.6 0.7-11.6 3.2-3 2.5-3 10.1 0 7.5 3.4 11.4 3.5 3.9 6.9 5.2 3.4 1.4 3.4 2.8 0 3.2-3.4 5-3.4 1.8-7.5 1.8zm40.1-82.6q0-7.1-6.4-7.1-9.1 0-20.3 12.8-10.9 12.8-10.9 23.1 0 2.5 3.8 2.5 9.4 0 21.5-9.6 12.3-9.6 12.3-21.7zm129.6-81.4v-3q0-5.9 24.4-5.9 12.3 0 12.3 4.5 0 1.8-1.8 3.7-8.7 11.8-36.9 60l28.2 0.2q9.4 0 17.2-7.5 3.8-4.1 6.8-7.6 3.2-3.6 7.1-10.2 3.9-6.6 6.1-10.5 3.2-5.7 11.2-21.9 0-1.2 1.6-2.8 1.8-1.8 4.1-2.9 2.5-1.4 7.5-2.3 5.1-0.9 11.9-0.9 6.9 0 6.9 3 0 1.3-1.2 3.1-0.9 1.6-11.8 18.3-10.8 16.7-21.7 34.7-11 17.8-23.3 38.8-12.1 21-19.8 38.3-7.6 17.3-7.6 25.3-1.3 3.9-5.7 3.9-12.5 0-17.3-2.1-4.8-2-4.8-6.1 0-7.1 15-33.1 15.3-26 15.3-31.5 0-5.7-4.5-8.4-4.6-2.8-15.3-2.8-10.7 0-14.8 0.3-7.8 12.5-17.8 32.1-10.1 19.7-16.9 32.2-6.9 12.6-11 15.8-8.4 6.3-20.7 6.3-7.1 0-7.1-3.6 0-2.1 5.9-12.1 6.2-10.3 19.6-31.9 13.5-21.9 23.3-38.4l-13.9 0.7q-3.4 0-3.4-1.8 0-3.9 4.8-7.8 5-3.9 8.2-5 3.2-1.1 13.2-1.6 8.5-14.4 21.7-39.9 5-11 5-19.6zm75.5 164q-13.2 0-19.4-7.8-6.1-7.9-6.1-19.3 0-11.7 5-24.2 5-12.8 13.7-24.7 8.9-11.8 23-19.8 14.4-8.2 30.8-8.2 7.6 0 11.4 4.8 3.9 4.5 3.9 10.9 0 13.2-9.3 24.6-9.4 11.5-20.8 17.4-11.4 5.9-20.3 6.8-8.7 0.7-11.6 3.2-3 2.5-3 10.1 0 7.5 3.4 11.4 3.4 3.9 6.9 5.2 3.4 1.4 3.4 2.8 0 3.2-3.4 5-3.5 1.8-7.6 1.8zm40.2-82.6q0-7.1-6.4-7.1-9.1 0-20.3 12.8-11 12.8-11 23.1 0 2.5 3.9 2.5 9.4 0 21.5-9.6 12.3-9.6 12.3-21.7zm57.3 61.6l0.4-4.8q0-1.8-1.4-1.8-2 0-8.4 5.9-6.2 6-15.7 12.1-9.4 6-19 6-9.3 0-9.3-14 0-17.3 15-39.9 7.8-11.4 17.8-21 10.3-9.8 24.9-16 14.6-6.3 30.6-6.3 8.4 0 14.3 4.5 6 4.4 6 11 0 6.4-3.9 6.4-2.1 0-5.5-2.5-6.4-4.4-20.1-4.4-18 0-34.2 16.4-16 16.2-16 32.2 0 2.1 1.2 3.9 1.3 1.8 3.6 1.8 6.9 0 17.6-9.3 10.7-9.6 21-27.4 0.7-2.1 5-3.9 4.3-1.8 10.3-1.8 8.4 0.7 8.4 3.6 0 0.3-1.8 3-1.6 2.5-5.9 9.4-4.4 6.8-12.4 22.5-7.7 15.6-9.1 24.7-0.2 2.7-2.3 2.7-11.1 0-11.1-13zm116.1-21q-4.3 0-6.6-4.3-2.3-4.6-2.3-8.7 0-4.3 2.7-9.8 0-3-2.3-3-8.9 0-20.3 10.8-11.4 10.5-19.1 21.9-7.8 11.1-14.2 22.6-3.9 6.8-15.9 6.8-6.2 0-6.2-2.7 0-6.2 22.4-45.9 22.5-39.9 29.8-42.7 5.1-2.5 11.2-2.5 6.4 0 6.4 2.8 0 2.5-5.2 10-5.3 7.5-5.3 9.6 0 2 1.6 2 0.9 0 5-2.7 10.1-7.5 24.7-15.5l2-2.8q5.5-6.8 15.8-6.8 10.5 0 10.5 4.1-0.5 1.2-2.3 3.7-18 24.6-30.4 51.5-0.9 1.6-2 1.6zm125.5-116.8l11.2-0.5q2.2 0 2.2 1 0 0.9-0.4 2.2-0.5 1.4-2.1 3.5-1.3 2-3.4 3.6-5.5 4.4-13.7 4.4-8 0-11.9 0.4-3.6 0.5-6.3 2.3-2.8 1.8-3.7 2.7-0.9 0.9-3.2 4.6-2.3 3.6-3.2 5-12.1 16.9-39.2 63.7-26.9 46.7-33.6 72.3-0.6 2.3-4.3 2.3-3.4 0-9.6-6-6.1-5.9-6.1-12 0-6.2 18.4-36.8 18.7-30.6 37.5-60 18.7-29.6 18.7-32.8 0-3.5-2.8-4.2-2.7-0.9-9.6-0.9h-7.5q-2.9 0-2.9-2.7 0-2.7 2.5-5.7 2.7-3.2 7.9-5.5 5.5-2.3 11-4.5 5.7-2.3 14.6-10.3 9.1-8 18.3-20.5 5.7-7.8 19.6-7.8 4.8 0 4.8 3 0 1.8-10.3 16.6-10.3 14.8-10.3 18.7 0 3.7 6.9 3.7 2.7 0.2 10.5 0.2zm-15.8 148.8q-5.2-2.5-8.6-8.9-3.2-6.4-3.2-15.8 0-14.6 9.3-30.5 9.6-16 26.7-27.4 17.4-11.4 36.5-11.4 8.9 0 14.9 4.8 5.9 4.7 5.9 9.5 0 4.6-1.4 7.3-1.4 2.8-1.4 3.7 0 2.7 4.4 2.7 4.3 0 6.6-1.1 2.3-1.2 2.7-1.2 1.9 0 1.9 4.8 0 4.6-4.6 11-4.6 6.1-11.2 9.1-0.9 1.8-2.5 5.3-1.6 3.2-7.5 11.4-6 8-12.8 14.3-6.6 6.2-17.8 11.5-10.9 5-20.1 5-9.1 0-17.8-4.1zm50.9-39.3q0-1.8-2-1.8-3 0-6.9 1.4-3.6 1.3-4.1 1.3-1.4 0-1.4-2 0-8.9 6.4-15.3 2.5-2.7 7.3-4.6 4.8-2 7.3-4.5 2.8-2.8 2.8-9.2 0-7.7-8.2-7.7-14.7 0-27.9 20.7-13.2 20.6-13.2 36.8 0 5.5 3.6 9.3 3.9 3.9 9.2 3.9 11.8 0 19.4-9.8 7.7-10 7.7-18.5zm102.9-45.8l26.2-1.4q2.6 0.2 2.6 2.5v0.2q0 5.3-8.3 7.6-4.5 0-12.7 2.9-8.2 2.8-10.5 4.1-6 3-6 5.7 0 2.8 6.4 7.1 2.3 1.4 4.4 5.5 2 4.1 2 10.5 0 14.6-13.9 42-13.7 27.3-32.9 53.6-18.9 26.2-40.6 45.8-21.4 19.7-35.1 19.7-3.9 0-5.9-1.9-2.1-1.8-2.5-3.6-0.3-1.8-0.3-5 0-13.7 23.8-62.5 23.7-49.1 60.9-111.2 0.4-0.9 0.4-1.8 0-5.5-11.6-5.5-2.1 0-2.1-2.2 0-3.9 8.3-9.2 2.2-1.6 7.7-1.6h3.7q5 0 6.1-1.8 25.8-46.3 51.6-78.9 26-32.9 40.6-32.9 9.4 0 9.4 11.6 0 14.9-11 34.5-11 19.4-25.6 32.9-14.3 13.4-24.1 13.4-2.5 0-2.5-1.4 0-2 2.9-4.1 12.6-8.4 24.2-26.9 11.6-18.5 11.6-26.2 0-2.5-1.8-2.5-8.7 0-30.8 33.3-21.9 33.1-21.9 42.4 0 5.3 7.3 5.3zm-28.7 31.2q-2.5 0-5.1 3.9-22.3 38.3-39 75.3-16.6 36.7-16.6 48.8v0.2q0 4.6 3.4 4.6 4.1 0 15.1-11.6 10.9-11.9 22.5-28.3 11.7-16.7 20.6-37.4 9.1-20.8 9.1-36.1 0-19.4-10-19.4zm124.5 39.5q17.4 0 36.1-29.9 25.8-41.5 50.2-90.1 5-10.3 5-19.6v-3q0-5.9 24.4-5.9 12.3 0 12.3 4.5 0 1.8-4.1 6.9-3.9 4.8-22.6 36.2-18.4 31.3-23.9 41.3-5.3 9.9-10.1 19-4.5 8.9-7 13.4-2.3 4.4-6 11-3.4 6.4-5.7 9.3-2.2 2.8-5.9 6.9-3.4 4.1-6.6 5.9-3.2 1.6-7.5 3.9-4.2 2.1-9.2 2.7-13.4 1.9-23.9 1.9-10.3 0-17.1-3.9-1-0.5-2.3-0.5-1.2 0-2.1 0.7-6.1 3.9-14.8 3.9-8.7 0-8.7-4.3 0-6.7 17.4-34.3 17.5-27.8 29.2-34 2.5-1.6 6.8-1.6 4.3 0 4.3 2.6 0 0.4-4.7 8.2-4.8 7.7-9.6 18.7-4.6 10.7-4.6 17.1 0 6.1 2.8 9.6 2.9 3.4 7.9 3.4zm100 24.4q-13.3 0-19.4-7.8-6.2-7.9-6.2-19.3 0-11.7 5-24.2 5.1-12.8 13.7-24.7 8.9-11.8 23.1-19.8 14.3-8.2 30.8-8.2 7.5 0 11.4 4.8 3.9 4.5 3.9 10.9 0 13.2-9.4 24.6-9.4 11.5-20.8 17.4-11.4 5.9-20.3 6.8-8.6 0.7-11.6 3.2-3 2.5-3 10.1 0 7.5 3.5 11.4 3.4 3.9 6.8 5.2 3.4 1.4 3.4 2.8 0 3.2-3.4 5-3.4 1.8-7.5 1.8zm40.1-82.6q0-7.1-6.4-7.1-9.1 0-20.3 12.8-10.9 12.8-10.9 23.1 0 2.5 3.9 2.5 9.3 0 21.4-9.6 12.3-9.6 12.3-21.7zm-7.3 80.3q0-1.8 2.5-2.3 16 0 34-10.2 18.3-10.3 18.3-21.5 0-8.2-11-15.7-10.9-7.8-10.9-16.2 0-12.6 16-21.7 15.9-9.3 36.2-9.3 3.7 0 4.8 0.2 1.2 0 2.1-1.4 1.1-1.6 2.5-3.4 1.4-1.8 5-3.2 3.7-1.6 8.7-1.6 11.6 0 11.6 3.4 0 0.7-0.2 1.2-3.7 3.2-13 15.7-9.4 12.6-13.7 23.5-0.9 2.1-4.1 2.1-3 0-6-3.5-2.9-3.6-2.9-6.8 0-3.4 1.1-7.1 1.2-3.9 1.2-4.5 0-3-3.7-3-7.1 0-14.8 4.3-7.5 4.1-7.5 12.1 0 7.8 11.4 15.8 4.3 3.2 7.7 8.2 3.7 5 3.7 10.5 0 15.5-20.3 28.3-20.3 12.5-44.1 12.5-13.4 0-14.6-6.4zm154.5-22.6l0.9-8.6q0-1.6-1.1-1.6h-0.5l-3.4 1.6q-14.8 14.3-24.2 19.8-9.4 5.3-19.4 5.3-4.6 0-8.2-2.8-3.7-2.7-3.7-10.5 0-7.7 8-27.3 8-19.7 19.9-37.5 11.8-18 20.7-20.3 3-0.9 8-0.9 5 0 5 2.8 0 0.9-8.2 12.7-8.2 11.7-16.4 26.7-8 15.1-8 22.6 0 7.5 5.3 7.5 9.8 0 22.6-12.7 12.7-12.8 33.5-40.4 5.7-8.2 18.2-8.2 6.9 0 6.9 2.7 0 0.7-0.7 1.8-35.8 55.2-43.1 79.2-0.9 2.7-2.3 2.7h-0.7q-9.1 0-9.1-14.6zm20.5 22.6q0-1.8 2.5-2.3 16 0 34-10.2 18.3-10.3 18.3-21.5 0-8.2-11-15.7-10.9-7.8-10.9-16.2 0-12.6 15.9-21.7 16-9.3 36.3-9.3 3.7 0 4.8 0.2 1.2 0 2.1-1.4 1.1-1.6 2.5-3.4 1.4-1.8 5-3.2 3.7-1.6 8.7-1.6 11.6 0 11.6 3.4 0 0.7-0.2 1.2-3.7 3.2-13 15.7-9.4 12.6-13.7 23.5-0.9 2.1-4.1 2.1-3 0-6-3.5-2.9-3.6-2.9-6.8 0-3.4 1.1-7.1 1.2-3.9 1.2-4.5 0-3-3.7-3-7.1 0-14.8 4.3-7.5 4.1-7.5 12.1 0 7.8 11.4 15.8 4.3 3.2 7.7 8.2 3.7 5 3.7 10.5 0 15.5-20.3 28.3-20.3 12.5-44.1 12.5-13.4 0-14.6-6.4z"/>
</svg>